<?xml version="1.0" encoding="UTF-8"?>
<svg id="Layer_2" xmlns="http://www.w3.org/2000/svg" version="1.1" viewBox="0 0 568 134.5">
  <!-- Generator: Adobe Illustrator 29.1.0, SVG Export Plug-In . SVG Version: 2.1.0 Build 142)  -->
  <defs>
    <style>
      .st0 {
        fill: #14215c;
      }

      .st1 {
        fill: #0a8cbf;
      }
    </style>
  </defs>
  <path class="st0" d="M562.4,8.6c1.2.7,2.2,1.7,3,3,.7,1.2,1.1,2.6,1.1,4.2s-.4,2.9-1.1,4.2c-.7,1.2-1.7,2.2-3,3-1.3.7-2.6,1.1-4.2,1.1s-2.9-.4-4.2-1.1c-1.3-.7-2.2-1.7-3-3s-1.1-2.6-1.1-4.2.4-2.9,1.1-4.2c.7-1.2,1.7-2.2,3-3,1.3-.7,2.7-1.1,4.2-1.1s2.9.4,4.2,1.1h0ZM561.7,21.8c1-.6,1.9-1.4,2.5-2.5.6-1.1.9-2.2.9-3.5s-.3-2.5-.9-3.5c-.6-1.1-1.4-1.9-2.5-2.5-1-.6-2.2-.9-3.5-.9s-2.5.3-3.5.9c-1,.6-1.9,1.4-2.5,2.5s-.9,2.2-.9,3.5.3,2.5.9,3.5c.6,1.1,1.4,1.9,2.5,2.5s2.2.9,3.5.9,2.5-.3,3.5-.9ZM561.5,17.9l1.5,2.7h-2.9l-1.6-3.1c-.1-.2-.2-.3-.3-.4-.1,0-.3-.1-.5-.1h-.8v3.6h-2.5v-9.7h4.4c1.1,0,2,.3,2.6.8.6.5.9,1.3.9,2.2s-.2,1.3-.6,1.9c-.4.5-1,.9-1.7,1,.6.1,1.1.5,1.4,1.1h0ZM559.6,14.9c.2-.2.4-.5.4-.9s-.1-.7-.4-.9c-.2-.2-.6-.3-1.1-.3h-1.6v2.3h1.6c.5,0,.9,0,1.1-.3Z"/>
  <g id="Layer_1-2">
    <path class="st0" d="M259.6,90c0,5-1.1,9.4-3.2,13.4s-5,7-8.5,9.2c-3.6,2.2-7.7,3.3-12.4,3.3s-9.2-1.4-12.1-4.4c-2.9-2.9-4.3-7.2-4.3-12.9v-58.5h-22.9v63.3c0,5.9,1.2,11.3,3.7,16,2.5,4.7,6.1,8.4,10.7,11.2,4.7,2.7,10.2,4.1,16.6,4.1s15.2-2,21.2-6.1c5-3.4,9-7.7,11.9-13v17.3h22.4V40h-23.1v50h0Z"/>
    <path class="st0" d="M365.8,43.9c-6.8-3.8-14.8-5.7-24-5.7s-18.2,2-25.4,6.1c-7.3,4.1-12.9,9.7-17,16.9-4.1,7.2-6.1,15.5-6.1,25s2,17.8,6.1,25.1c4.1,7.3,9.8,13,17.1,17.1,7.3,4.1,15.9,6.2,25.7,6.2s20-2.6,27.2-7.6c7.2-5.1,12.3-12,15.4-20.7h-21.6c-1.7,3.8-4.4,6.5-8,8.4-3.6,1.8-7.9,2.7-12.7,2.7-8.4,0-14.8-2.6-19.4-7.9-3.5-4-5.6-9.4-6.4-16.1h69.9c.2-1.4.4-2.9.5-4.4.1-1.4.2-3,.2-4.7,0-9.2-1.9-17.3-5.6-24.2-3.8-6.9-9-12.3-15.8-16.1h0,0ZM341.4,55.4c7.1,0,12.7,2.2,16.7,6.5,3.3,3.6,5.2,8.7,5.8,15.3h-47c1-5.6,3-10.3,6-13.8,4.5-5.3,10.7-8,18.5-8h0Z"/>
    <path class="st0" d="M447.3,78l-16-3.6c-4.9-1.2-8.3-2.6-10.4-4.3-2.1-1.6-3.1-3.7-3.1-6.1s1.3-5.5,4-7.2c2.7-1.6,6.6-2.5,11.8-2.5s10,1,13.2,2.9,5.1,4.8,5.7,8.5h20.9c-.7-8.6-4.6-15.4-11.5-20.3-7-4.9-16.2-7.4-27.7-7.4s-20.8,2.5-27.4,7.4c-6.6,4.9-9.9,11.7-9.9,20.3s2.5,12.9,7.4,17.5c4.9,4.7,12.5,8.1,22.6,10.3l14.9,3.4c4.7,1.1,7.9,2.4,9.6,4.1,1.7,1.6,2.5,3.7,2.5,6.3s-1.5,6.2-4.5,8.1c-3,1.9-7.4,2.8-13.4,2.8s-11.8-1.2-15.6-3.6-6.1-6-6.7-10.7h-20.9c.7,9.6,4.9,17.1,12.5,22.4s17.9,8.1,30.7,8.1,21.8-2.4,28.5-7.3c6.8-4.8,10.2-11.7,10.2-20.5s-2.3-12.9-7-18c-4.7-5.1-11.5-8.7-20.6-10.7,0,0,0,0,0,0Z"/>
    <path class="st0" d="M544.5,58v-18h-25.3V10.3l-23.1,8.5v21.1h-30.9c6.8,3.1,12.7,14.4,13,18h17.8v44.2c0,10.8,2.7,18.9,8.1,24.3,5.4,5.4,13.8,8.1,25.2,8.1s6.2-.2,8.9-.6c2.7-.4,4.7-1,6.2-1.7v-17.8c-1.5.5-3,.9-4.6,1.2-1.6.3-3.5.4-5.5.4-5.2,0-9-1.1-11.5-3.3-2.4-2.2-3.6-5.5-3.6-10v-44.7h25.3s0,0,0,0Z"/>
    <path class="st0" d="M188.7,112.7l-30.8,1.2c.9-.7,1.8-1.4,2.6-2.1,6.1-5.4,10.5-12.1,13.4-19.9,2.9-7.8,4.4-16.1,4.4-25,0-13.2-2.8-24.8-8.4-34.9s-13.3-17.9-23.2-23.5C137,2.8,125.6,0,112.8,0s-23.8,2.8-33.7,8.4c-6.2,3.5-11.5,7.9-16,13.2l15.9,15.8c3.2-5,7.2-9.1,12.1-12.2,6.2-3.9,13.5-5.9,21.7-5.9s15.7,2,21.9,5.9,11.1,9.5,14.5,16.5,5.2,15.4,5.2,24.8-1.8,18.7-5.3,26.2c-3.5,7.5-8.4,13.3-14.6,17.4s-13.5,6.1-21.7,6.1-15.3-2-21.5-6.1c-2.9-1.9-5.6-4.2-7.9-6.9l-14.8,14.9c3.2,2.9,6.8,5.5,10.7,7.8,10,5.8,21.6,8.6,34.8,8.6s13.1,0,18.5-.3c5.4-.2,10.7-.4,15.7-.6,5-.2,10.4-.4,16.2-.6,5.8-.2,28-.3,35.6-.3,0,0-10-3-11.3-19.9h0Z"/>
    <polygon class="st1" points="89.1 62.7 56.6 30.6 47.1 40.2 71.8 64.4 28 64.4 28 80.4 71.3 80.4 47.5 104.7 57.1 114.2 89.2 81.8 98.7 72.2 89.1 62.7"/>
    <rect class="st1" x="1.6" y="64.4" width="16" height="16"/>
  </g>
</svg>